<?xml version="1.0" encoding="utf-8"?>
<!-- Generator: Adobe Illustrator 26.0.1, SVG Export Plug-In . SVG Version: 6.00 Build 0)  -->
<svg version="1.1" id="Layer_1" xmlns="http://www.w3.org/2000/svg" xmlns:xlink="http://www.w3.org/1999/xlink" x="0px" y="0px"
	 viewBox="0 0 700 278" style="enable-background:new 0 0 700 278;" xml:space="preserve">
<style type="text/css">
	.st0{fill:#FFFFFF;}
	.st1{fill-rule:evenodd;clip-rule:evenodd;fill:#FFFFFF;}
</style>
<g id="Page-1">
	<g id="Home">
		<g id="Navigation">
			<g id="V2-LOGO">
				<g id="Horizontal">
					<g id="Group">
						<path id="Shape" class="st0" d="M169.2,127.5l-34.8-34.8v-4c0.4-26.7-20.9-48.6-47.6-49c-26.7-0.4-48.6,20.9-49,47.6
							c0,0.5,0,0.9,0,1.4v42.6c-0.1,2.7,1,5.2,3,7l34.8,34.6v19c0,5.5,4.5,10,10,10s10-4.5,10-10v-23c0.1-2.7-1-5.2-3-7L57.8,127
							V88.7C57.5,73,70,60.1,85.6,59.9s28.5,12.1,28.8,27.8c0,0.4,0,0.7,0,1.1v7.5c0,1,0,2,0.2,3v0.2c0.1,0.5,0.2,1,0.5,1.5
							c0.6,1.6,1.7,3,3,4l34.3,34.3v52.8c0,36.5-29.6,66.1-66.1,66.1c-35-0.5-63.8-27.6-66.1-62.1c-0.3-5.5-5-9.6-10.5-9.3
							c-0.1,0-0.2,0-0.2,0c-5.5,0.3-9.6,5.1-9.3,10.5c0,0.1,0,0.2,0,0.3c2.7,47.5,43.3,83.8,90.8,81.1c46-2.6,81.8-40.9,81.2-86.9
							v-57.1C172.2,132,171.1,129.5,169.2,127.5z"/>
						<path id="Shape-2" class="st0" d="M37.8,183.8v8c-0.4,26.7,20.9,48.6,47.6,49c26.7,0.4,48.6-20.9,49-47.6c0-0.5,0-0.9,0-1.4
							V150c0.1-2.7-1-5.2-3-7l-35.5-35.6v-19c0-5.5-4.5-10-10-10s-10,4.5-10,10v23.3c-0.1,2.7,1,5.2,3,7l35.5,35.2v37.6
							c0.3,15.6-12.1,28.5-27.8,28.8c-15.6,0.3-28.5-12.1-28.8-27.8c0-0.4,0-0.7,0-1.1v-9.3c0.8-3.4-0.1-7-2.5-9.5h-0.2l-0.2-0.2
							L20,137.8V86.2C19.9,49.7,49.4,20.1,85.8,20c0.1,0,0.2,0,0.3,0c33.5,0,62.3,26,65.6,59.4v1c0.4,5.5,5.2,9.7,10.8,9.2
							s9.7-5.2,9.2-10.8l-0.2-1.5c-4.9-47.2-47.1-81.6-94.3-76.7C33.3,5.1,0,42.1,0,86.2V142c-0.1,2.7,1,5.2,3,7L37.8,183.8z"/>
					</g>
					<g id="Group-16">
						<g id="Group-3">
							<g>
								<path id="Fill-1" class="st1" d="M262.1,160.4v1.9c0,9.7,8.4,16.8,19.6,16.8c10.8,0,18.9-6.7,18.9-15.3
									c0-4.5-2.2-8.7-5.8-11.4c-3.7-2.8-6.2-3.9-17.4-8c-31.4-11.2-42.6-23-42.6-45c0-26,19.1-43.5,47.3-43.5
									c28,0,46,16.3,48.4,43.9h-29.7c-1.1-12-7.1-17.9-18.7-17.9c-10.5,0-17.6,6-17.6,15.1c0,5.8,3,10.3,8.8,13.6
									c3.9,2.2,6.2,3.2,16.8,7.1c15.7,5.8,23.7,9.9,29.9,15.9c7.5,7.1,11.4,16.8,11.4,27.8c0,26.2-19.8,43.7-49.5,43.7
									c-30.1,0-48.6-17.2-48.4-44.8L262.1,160.4z"/>
							</g>
						</g>
						<path id="Fill-4" class="st1" d="M577.2,202.3h-27.3v-76.9h-11v-23h11v-5.2c0-26.7,13.1-39.1,40.4-38.3V84
							c-9.5,1.1-13.1,4.7-13.1,13.1v5.3h13.1v23h-13.1V202.3z"/>
						<path id="Fill-6" class="st1" d="M640.2,173.1c0,4.7,1.7,6,7.8,6.4h4.7v22.8H631c-13.3-0.4-18.3-5.8-18.1-18.9v-58.1h-11.4
							v-22.8h11.4V75.6h27.3v26.9h12.5v22.8h-12.5V173.1z"/>
						<g id="Group-17">
							<polygon id="Fill-8" class="st1" points="672.5,123.2 667.8,123.2 667.8,107.9 663.4,107.9 663.4,104.1 676.9,104.1 
								676.9,107.9 672.5,107.9 							"/>
							<polygon id="Fill-10" class="st1" points="683.7,123.2 679,123.2 679,104.1 684.4,104.1 689.5,114.4 694.5,104.1 700,104.1 
								700,123.2 695.3,123.2 695.3,112.3 689.5,124 683.7,112.3 							"/>
						</g>
						<path id="Fill-12" class="st1" d="M500.2,102.3V165c0,10.3-5.9,16.6-15.7,16.6c-9.7,0-16.2-7.3-16.2-18.2v-61h-26.6v63.8
							c0,12.8,3.4,22,10.3,28.3c7.6,6.9,19.1,10.7,32.5,10.7c5.1,0,10.1-0.6,15.1-1.9v8.4c0,8.4-3.7,12-13.1,13.1l-17.3,0.1V250H490
							l0,0c24.9-0.3,36.9-12.8,36.9-38.3V102.3H500.2z"/>
						<path id="Fill-14" class="st1" d="M417.3,113.1c-7.6-6.9-19.1-10.7-32.5-10.7c-5.1,0-10.1,0.6-15.1,1.8V59.2
							c0-0.1,0-0.2,0-0.3h-27.3c0,0.1,0,0.2,0,0.3v142.6H369v-59.2c0-10.3,5.9-16.6,15.7-16.6c9.6,0,16.1,7.4,16.1,18.3v57.5h26.6
							v-60.3C427.5,128.6,424.2,119.4,417.3,113.1"/>
					</g>
				</g>
			</g>
		</g>
	</g>
</g>
</svg>
